<svg id="Layer_1" data-name="Layer 1" xmlns="http://www.w3.org/2000/svg" xmlns:xlink="http://www.w3.org/1999/xlink" viewBox="0 0 267.75 62.88"><defs><style>.cls-1{fill:#fff}</style><linearGradient id="linear-gradient" x1="31.46" y1="43.55" x2="31.46" y2="26.38" gradientUnits="userSpaceOnUse"><stop offset="0" stop-color="#8b0733"/><stop offset=".41" stop-color="#ae1239"/><stop offset=".78" stop-color="#c61a3d"/><stop offset="1" stop-color="#cf1d3f"/></linearGradient><linearGradient id="linear-gradient-2" x1="31.45" y1="61.74" x2="31.45" y2="7.12" gradientUnits="userSpaceOnUse"><stop offset="0" stop-color="#e14948"/><stop offset=".37" stop-color="#d73143"/><stop offset=".72" stop-color="#d12240"/><stop offset="1" stop-color="#cf1d3f"/></linearGradient><linearGradient id="linear-gradient-3" x1="27.15" y1="41.75" x2="17.54" y2="31.85" gradientUnits="userSpaceOnUse"><stop offset="0" stop-color="#e14948"/><stop offset=".11" stop-color="#dd4046"/><stop offset=".4" stop-color="#d52c42"/><stop offset=".69" stop-color="#d12140"/><stop offset="1" stop-color="#cf1d3f"/></linearGradient><linearGradient id="linear-gradient-4" x1="35.49" y1="41.76" x2="49.56" y2="27.69" xlink:href="#linear-gradient-3"/></defs><path class="cls-1" d="M146 61.88a4.77 4.77 0 0 1-1.32-.16 3.78 3.78 0 0 1-1-.42 3.07 3.07 0 0 1-.67-.53c-.17-.19-.32-.36-.43-.51l1.09-.86a2.35 2.35 0 0 0 .35.37 2.86 2.86 0 0 0 .53.35 3.21 3.21 0 0 0 .68.27 3 3 0 0 0 .81.11 2.31 2.31 0 0 0 .86-.14 1.74 1.74 0 0 0 .52-.34 1 1 0 0 0 .25-.36.76.76 0 0 0 .07-.27.76.76 0 0 0-.37-.66 4.29 4.29 0 0 0-.91-.44c-.37-.13-.77-.27-1.19-.4a5.59 5.59 0 0 1-1.19-.53 3.25 3.25 0 0 1-.92-.85 2.21 2.21 0 0 1-.37-1.31 2.56 2.56 0 0 1 .13-.7 2 2 0 0 1 .47-.77 2.75 2.75 0 0 1 .91-.62 3.79 3.79 0 0 1 1.5-.25 4.22 4.22 0 0 1 1.25.16 3.5 3.5 0 0 1 .89.38 3.14 3.14 0 0 1 .61.47 3.62 3.62 0 0 1 .33.42l-1.06.79a2.18 2.18 0 0 0-1-.64 3.6 3.6 0 0 0-1.14-.2 1.89 1.89 0 0 0-.53.08 1.83 1.83 0 0 0-.46.24 1.52 1.52 0 0 0-.33.34.74.74 0 0 0-.13.41.89.89 0 0 0 .37.77 3.61 3.61 0 0 0 .92.49c.36.13.76.26 1.19.38a5.57 5.57 0 0 1 1.2.48 2.9 2.9 0 0 1 .92.78 2.09 2.09 0 0 1 .37 1.28 2.25 2.25 0 0 1-.16.73 2.08 2.08 0 0 1-.54.78 3 3 0 0 1-1 .63 4.09 4.09 0 0 1-1.5.25zM170.47 53l3.17 8.71h-1.59l-.57-1.55h-4.17l-.56 1.55h-1.59l3.17-8.71zm-2.66 5.79H171l-1.58-4.35zM191.51 57.1h4v1.38h-4v3.24H190V53h5.83v1.38h-4.36zM218.44 60.33v1.39h-5.84V53h5.84v1.38h-4.37v2.38h4v1.38h-4v2.18zM234.85 54.39V53H242v1.38h-2.82v7.33h-1.47v-7.32zM264 53h1.69l-3.15 5.77v2.94h-1.47v-2.93L258 53h1.68l2.2 4.07zM93.29 19.1c.69 2.61 1.4 5.38 2.13 8.29s1.44 5.68 2.13 8.29l3.66-16.58h6.9L101.73 44h-7.92l-1.75-6.42c-.59-2.15-1.17-4.31-1.74-6.46-.58 2.15-1.16 4.31-1.75 6.46S87.4 41.91 86.83 44H78.9l-6.37-24.9h6.89l3.66 16.58q1-3.91 2.13-8.29c.73-2.91 1.44-5.68 2.13-8.29zM109.23 31.61a12.36 12.36 0 0 1 1-5.05 12.85 12.85 0 0 1 7-6.84 13.92 13.92 0 0 1 10.41 0 13.16 13.16 0 0 1 4.17 2.75 12.94 12.94 0 0 1 2.8 4.09 12.81 12.81 0 0 1 0 10.11 12.95 12.95 0 0 1-7 6.83 13.92 13.92 0 0 1-10.41 0 13 13 0 0 1-4.2-2.75 13.24 13.24 0 0 1-2.8-4.08 12.41 12.41 0 0 1-.97-5.06zm19.9 0a7.11 7.11 0 0 0-.52-2.74 6.83 6.83 0 0 0-3.55-3.74 6.34 6.34 0 0 0-5.21 0 6.92 6.92 0 0 0-2.13 1.51 7.1 7.1 0 0 0-1.43 2.23 7.64 7.64 0 0 0 0 5.49 7 7 0 0 0 1.43 2.22 6.6 6.6 0 0 0 2.13 1.51 6.34 6.34 0 0 0 5.21 0 6.6 6.6 0 0 0 2.13-1.51 6.75 6.75 0 0 0 1.42-2.22 7.16 7.16 0 0 0 .52-2.75zM152.85 44l-5.53-6.68h-1.95V44H139V19.14h10.08A13.83 13.83 0 0 1 154 20.3a8.87 8.87 0 0 1 2.05 1.19 6.78 6.78 0 0 1 1.37 1.56 8.92 8.92 0 0 1 1 2.24 10.05 10.05 0 0 1 .41 3 9.73 9.73 0 0 1-.41 2.95 8 8 0 0 1-1.11 2.21 7.93 7.93 0 0 1-1.55 1.61 9.91 9.91 0 0 1-1.77 1.1l6.29 7.84zm-7.48-12.5h3.82a3.36 3.36 0 0 0 2.16-.71 3 3 0 0 0 .91-2.49 3.11 3.11 0 0 0-.91-2.56 3.33 3.33 0 0 0-2.16-.74h-3.82zM194.39 35.73a12.09 12.09 0 0 0 2.44 2 6.57 6.57 0 0 0 3.55.9 5.31 5.31 0 0 0 1.59-.19 3.24 3.24 0 0 0 .95-.45 1.44 1.44 0 0 0 .48-.58 1.72 1.72 0 0 0 .12-.58c0-.49-.31-.89-.94-1.21a18.84 18.84 0 0 0-2.37-.94l-3.1-1.06a13.14 13.14 0 0 1-3.1-1.52 8.13 8.13 0 0 1-2.37-2.41 6.5 6.5 0 0 1-.95-3.65 7.56 7.56 0 0 1 .39-2.17 6.21 6.21 0 0 1 1.42-2.41 8.31 8.31 0 0 1 2.8-1.93 10.92 10.92 0 0 1 4.48-.8 12 12 0 0 1 4.48.73 12.45 12.45 0 0 1 3 1.62 9.36 9.36 0 0 1 2.11 2.35L205 26.85a8 8 0 0 0-1.47-1.31 5.47 5.47 0 0 0-1.35-.67 5.81 5.81 0 0 0-1.32-.26h-1.33a3.1 3.1 0 0 0-1.7.45 1.42 1.42 0 0 0-.71 1.27 1.56 1.56 0 0 0 .94 1.36 13.16 13.16 0 0 0 2.37 1c1 .32 2 .68 3.1 1.08a15.19 15.19 0 0 1 3.11 1.51 8.24 8.24 0 0 1 2.37 2.3 6.12 6.12 0 0 1 .94 3.51 6.28 6.28 0 0 1-.49 2.26 7.24 7.24 0 0 1-1.62 2.42 9 9 0 0 1-3 1.93 12 12 0 0 1-4.68.8 13.71 13.71 0 0 1-4.24-.58 12.81 12.81 0 0 1-3-1.4 8.81 8.81 0 0 1-2-1.72 10 10 0 0 1-1.07-1.56zM214.72 19.1h6.33V44h-6.33zM225.53 25v-5.86h21V25h-7.32v19h-6.33V25zM267.75 38.18V44h-17.62V19.14h17.62V25h-11.29v3.83h10.38v5.86h-10.38v3.49zM164.45 19h6.95v25.04h-6.95zM188.38 19.05h-7.85l-9.12 12.47 9.12 12.46h7.85l-9.12-12.46 9.12-12.47z"/><path d="M51.49 33l-1.43-.43a.54.54 0 0 1-.38-.62l1-5.2a.53.53 0 0 0-.68-.62l-4.45 1.28a.55.55 0 0 1-.66-.33l-.56-1.42a.59.59 0 0 0-1-.21l-5 5.07 1.78-11.31a.53.53 0 0 0-.76-.56l-3 1.47a.55.55 0 0 1-.72-.22l-3.77-6.7a.55.55 0 0 0-1 0L27.22 20a.54.54 0 0 1-.72.22l-2.95-1.47a.53.53 0 0 0-.77.56c.25 1.61 1.77 11.29 1.77 11.29l-5-5.07a.57.57 0 0 0-.93.2L18 27.12a.55.55 0 0 1-.66.33l-4.44-1.28a.54.54 0 0 0-.69.62l1 5.2a.54.54 0 0 1-.38.62l-1.41.39a.54.54 0 0 0-.22.9l3.18 3.13 7.72 7.72a1.5 1.5 0 0 0 2.13 0l7.24-7.24 7.23 7.24a1.5 1.5 0 0 0 2.13 0L50 35.66l1.75-1.73a.53.53 0 0 0-.26-.93z" fill="url(#linear-gradient)"/><path d="M31.45 62.88a4.09 4.09 0 0 1-2.92-1.21L1.21 34.36a4.14 4.14 0 0 1 0-5.85L28.53 1.19a4.18 4.18 0 0 1 5.85 0l27.31 27.32a4.1 4.1 0 0 1 0 5.84L34.37 61.67a4.09 4.09 0 0 1-2.92 1.21zm-.87-3.26a1.25 1.25 0 0 0 1.74 0L59.64 32.3a1.23 1.23 0 0 0 0-1.74L32.32 3.25a1.28 1.28 0 0 0-1.73 0L3.27 30.56a1.24 1.24 0 0 0-.36.87 1.23 1.23 0 0 0 .36.87l27.31 27.32z" fill="url(#linear-gradient-2)"/><path d="M19.56 25.49a.6.6 0 0 0-1 .21L18 27.12a.56.56 0 0 1-.66.33l-4.45-1.28a.54.54 0 0 0-.69.62l1 5.2a.54.54 0 0 1-.38.62l-1.4.39a.53.53 0 0 0-.23.89l1.75 1.73 9.16 9.13a1.5 1.5 0 0 0 2.13 0l7.23-7.23z" fill="url(#linear-gradient-3)"/><path d="M43.36 25.49a.59.59 0 0 1 1 .21l.56 1.42a.56.56 0 0 0 .66.33L50 26.17a.53.53 0 0 1 .68.62l-1 5.2a.54.54 0 0 0 .38.62l1.44.39a.53.53 0 0 1 .22.89L50 35.66l-9.16 9.13a1.49 1.49 0 0 1-2.12 0l-7.23-7.23z" fill="url(#linear-gradient-4)"/></svg>